<mxfile host="app.diagrams.net" modified="2021-03-25T17:31:48.989Z" agent="5.0 (Windows NT 10.0; Win64; x64) AppleWebKit/537.36 (KHTML, like Gecko) Chrome/89.0.4389.90 Safari/537.36" etag="gzti97Bbujj64uwH72bM" version="14.4.8" type="github">
  <diagram name="Page-1" id="0783ab3e-0a74-02c8-0abd-f7b4e66b4bec">
    <mxGraphModel dx="2607" dy="1457" grid="1" gridSize="10" guides="1" tooltips="1" connect="1" arrows="1" fold="1" page="1" pageScale="1" pageWidth="850" pageHeight="1100" background="#ffffff" math="0" shadow="0">
      <root>
        <mxCell id="0" />
        <mxCell id="1" parent="0" />
        <mxCell id="1c1d494c118603dd-1" value="online test" style="swimlane;html=1;childLayout=stackLayout;startSize=20;rounded=0;shadow=0;comic=0;labelBackgroundColor=none;strokeWidth=1;fontFamily=Verdana;fontSize=12;align=center;" parent="1" vertex="1">
          <mxGeometry x="41" y="25" width="790" height="2020" as="geometry" />
        </mxCell>
        <mxCell id="1c1d494c118603dd-2" value="screen" style="swimlane;html=1;startSize=20;" parent="1c1d494c118603dd-1" vertex="1">
          <mxGeometry y="20" width="250" height="2000" as="geometry">
            <mxRectangle y="20" width="30" height="1030" as="alternateBounds" />
          </mxGeometry>
        </mxCell>
        <mxCell id="__xzhOT7xX7lZz7hjgIz-19" style="edgeStyle=orthogonalEdgeStyle;rounded=0;orthogonalLoop=1;jettySize=auto;html=1;entryX=0;entryY=0.5;entryDx=0;entryDy=0;" edge="1" parent="1c1d494c118603dd-2" source="__xzhOT7xX7lZz7hjgIz-13" target="__xzhOT7xX7lZz7hjgIz-15">
          <mxGeometry relative="1" as="geometry" />
        </mxCell>
        <mxCell id="__xzhOT7xX7lZz7hjgIz-13" value="" style="shape=ellipse;html=1;fillColor=#000000;strokeWidth=2;verticalLabelPosition=bottom;verticalAlignment=top;perimeter=ellipsePerimeter;" vertex="1" parent="1c1d494c118603dd-2">
          <mxGeometry x="20" y="140" width="40" height="40" as="geometry" />
        </mxCell>
        <mxCell id="__xzhOT7xX7lZz7hjgIz-15" value="" style="shape=rhombus;html=1;verticalLabelPosition=bottom;verticalAlignment=top;" vertex="1" parent="1c1d494c118603dd-2">
          <mxGeometry x="130" y="140" width="40" height="40" as="geometry" />
        </mxCell>
        <mxCell id="__xzhOT7xX7lZz7hjgIz-214" style="edgeStyle=orthogonalEdgeStyle;rounded=0;orthogonalLoop=1;jettySize=auto;html=1;entryX=0.5;entryY=0;entryDx=0;entryDy=0;" edge="1" parent="1c1d494c118603dd-2" source="__xzhOT7xX7lZz7hjgIz-34" target="__xzhOT7xX7lZz7hjgIz-212">
          <mxGeometry relative="1" as="geometry" />
        </mxCell>
        <mxCell id="__xzhOT7xX7lZz7hjgIz-34" value="show home page" style="shape=rect;html=1;rounded=1;whiteSpace=wrap;align=center;" vertex="1" parent="1c1d494c118603dd-2">
          <mxGeometry x="70" y="725" width="90" height="50" as="geometry" />
        </mxCell>
        <mxCell id="__xzhOT7xX7lZz7hjgIz-47" value="display question" style="shape=rect;html=1;rounded=1;whiteSpace=wrap;align=center;" vertex="1" parent="1c1d494c118603dd-2">
          <mxGeometry x="70" y="395" width="90" height="50" as="geometry" />
        </mxCell>
        <mxCell id="__xzhOT7xX7lZz7hjgIz-63" value="display results" style="shape=rect;html=1;rounded=1;whiteSpace=wrap;align=center;" vertex="1" parent="1c1d494c118603dd-2">
          <mxGeometry x="70" y="595" width="90" height="55" as="geometry" />
        </mxCell>
        <mxCell id="__xzhOT7xX7lZz7hjgIz-65" value="" style="html=1;shape=mxgraph.sysml.actFinal;strokeWidth=2;verticalLabelPosition=bottom;verticalAlignment=top;" vertex="1" parent="1c1d494c118603dd-2">
          <mxGeometry x="114" y="1895" width="40" height="40" as="geometry" />
        </mxCell>
        <mxCell id="__xzhOT7xX7lZz7hjgIz-78" value="display form&amp;nbsp;&lt;br&gt;create test/class" style="shape=rect;html=1;rounded=1;whiteSpace=wrap;align=center;" vertex="1" parent="1c1d494c118603dd-2">
          <mxGeometry x="139" y="895" width="90" height="40" as="geometry" />
        </mxCell>
        <mxCell id="__xzhOT7xX7lZz7hjgIz-79" value="display form&lt;br&gt;edit test/class" style="shape=rect;html=1;rounded=1;whiteSpace=wrap;align=center;" vertex="1" parent="1c1d494c118603dd-2">
          <mxGeometry x="139" y="982.5" width="90" height="40" as="geometry" />
        </mxCell>
        <mxCell id="__xzhOT7xX7lZz7hjgIz-89" value="display alert&lt;br&gt;deleted" style="shape=rect;html=1;rounded=1;whiteSpace=wrap;align=center;" vertex="1" parent="1c1d494c118603dd-2">
          <mxGeometry x="139" y="1052.5" width="90" height="35" as="geometry" />
        </mxCell>
        <mxCell id="__xzhOT7xX7lZz7hjgIz-95" value="display form&lt;br&gt;updating account" style="shape=rect;html=1;rounded=1;whiteSpace=wrap;align=center;" vertex="1" parent="1c1d494c118603dd-2">
          <mxGeometry x="134" y="1121.25" width="100" height="37.5" as="geometry" />
        </mxCell>
        <mxCell id="__xzhOT7xX7lZz7hjgIz-99" value="" style="shape=rect;html=1;fillColor=#000000;verticalLabelPosition=bottom;labelBackgroundColor=#ffffff;verticalAlign=top;" vertex="1" parent="1c1d494c118603dd-2">
          <mxGeometry x="89" y="1000" width="10" height="140" as="geometry" />
        </mxCell>
        <mxCell id="__xzhOT7xX7lZz7hjgIz-109" style="edgeStyle=orthogonalEdgeStyle;rounded=0;orthogonalLoop=1;jettySize=auto;html=1;entryX=1;entryY=0;entryDx=0;entryDy=0;" edge="1" parent="1c1d494c118603dd-2" source="__xzhOT7xX7lZz7hjgIz-79" target="__xzhOT7xX7lZz7hjgIz-99">
          <mxGeometry relative="1" as="geometry">
            <Array as="points">
              <mxPoint x="119" y="1003" />
              <mxPoint x="119" y="1000" />
            </Array>
          </mxGeometry>
        </mxCell>
        <mxCell id="__xzhOT7xX7lZz7hjgIz-110" style="edgeStyle=orthogonalEdgeStyle;rounded=0;orthogonalLoop=1;jettySize=auto;html=1;entryX=1;entryY=0.5;entryDx=0;entryDy=0;" edge="1" parent="1c1d494c118603dd-2" source="__xzhOT7xX7lZz7hjgIz-89" target="__xzhOT7xX7lZz7hjgIz-99">
          <mxGeometry relative="1" as="geometry" />
        </mxCell>
        <mxCell id="__xzhOT7xX7lZz7hjgIz-111" style="edgeStyle=orthogonalEdgeStyle;rounded=0;orthogonalLoop=1;jettySize=auto;html=1;entryX=1;entryY=1;entryDx=0;entryDy=0;" edge="1" parent="1c1d494c118603dd-2" source="__xzhOT7xX7lZz7hjgIz-95" target="__xzhOT7xX7lZz7hjgIz-99">
          <mxGeometry relative="1" as="geometry">
            <Array as="points">
              <mxPoint x="114" y="1140" />
              <mxPoint x="114" y="1140" />
            </Array>
          </mxGeometry>
        </mxCell>
        <mxCell id="__xzhOT7xX7lZz7hjgIz-120" value="" style="shape=rect;html=1;fillColor=#000000;verticalLabelPosition=bottom;labelBackgroundColor=#ffffff;verticalAlign=top;" vertex="1" parent="1c1d494c118603dd-2">
          <mxGeometry x="200" y="1465" width="12.5" height="85" as="geometry" />
        </mxCell>
        <mxCell id="__xzhOT7xX7lZz7hjgIz-130" value="show &lt;br&gt;new data" style="shape=rect;html=1;rounded=1;whiteSpace=wrap;align=center;" vertex="1" parent="1c1d494c118603dd-2">
          <mxGeometry x="99" y="1491.25" width="70" height="32.5" as="geometry" />
        </mxCell>
        <mxCell id="__xzhOT7xX7lZz7hjgIz-129" style="edgeStyle=orthogonalEdgeStyle;rounded=0;orthogonalLoop=1;jettySize=auto;html=1;" edge="1" parent="1c1d494c118603dd-2" source="__xzhOT7xX7lZz7hjgIz-120" target="__xzhOT7xX7lZz7hjgIz-130">
          <mxGeometry relative="1" as="geometry">
            <mxPoint x="159" y="1507.5" as="targetPoint" />
          </mxGeometry>
        </mxCell>
        <mxCell id="__xzhOT7xX7lZz7hjgIz-212" value="" style="rhombus;whiteSpace=wrap;html=1;" vertex="1" parent="1c1d494c118603dd-2">
          <mxGeometry x="95" y="815" width="40" height="35" as="geometry" />
        </mxCell>
        <mxCell id="__xzhOT7xX7lZz7hjgIz-251" style="edgeStyle=orthogonalEdgeStyle;rounded=0;orthogonalLoop=1;jettySize=auto;html=1;entryX=0.5;entryY=0;entryDx=0;entryDy=0;entryPerimeter=0;" edge="1" parent="1c1d494c118603dd-2" source="__xzhOT7xX7lZz7hjgIz-247" target="__xzhOT7xX7lZz7hjgIz-65">
          <mxGeometry relative="1" as="geometry" />
        </mxCell>
        <mxCell id="__xzhOT7xX7lZz7hjgIz-247" value="display&amp;nbsp;&lt;br&gt;guest&#39;s screesn" style="shape=rect;html=1;rounded=1;whiteSpace=wrap;align=center;" vertex="1" parent="1c1d494c118603dd-2">
          <mxGeometry x="84" y="1765" width="100" height="50" as="geometry" />
        </mxCell>
        <mxCell id="1c1d494c118603dd-3" value="teacher" style="swimlane;html=1;startSize=20;" parent="1c1d494c118603dd-1" vertex="1">
          <mxGeometry x="250" y="20" width="170" height="2000" as="geometry" />
        </mxCell>
        <mxCell id="__xzhOT7xX7lZz7hjgIz-21" value="enter username&lt;br&gt;password" style="shape=rect;html=1;rounded=1;whiteSpace=wrap;align=center;" vertex="1" parent="1c1d494c118603dd-3">
          <mxGeometry x="15" y="77.5" width="100" height="50" as="geometry" />
        </mxCell>
        <mxCell id="__xzhOT7xX7lZz7hjgIz-67" value="select actions" style="shape=rect;html=1;rounded=1;whiteSpace=wrap;align=center;" vertex="1" parent="1c1d494c118603dd-3">
          <mxGeometry x="40" y="807.5" width="100" height="50" as="geometry" />
        </mxCell>
        <mxCell id="__xzhOT7xX7lZz7hjgIz-70" value="" style="rhombus;whiteSpace=wrap;html=1;" vertex="1" parent="1c1d494c118603dd-3">
          <mxGeometry x="72.5" y="900" width="35" height="35" as="geometry" />
        </mxCell>
        <mxCell id="__xzhOT7xX7lZz7hjgIz-69" style="edgeStyle=orthogonalEdgeStyle;rounded=0;orthogonalLoop=1;jettySize=auto;html=1;exitX=0.5;exitY=1;exitDx=0;exitDy=0;" edge="1" parent="1c1d494c118603dd-3" source="__xzhOT7xX7lZz7hjgIz-67" target="__xzhOT7xX7lZz7hjgIz-70">
          <mxGeometry relative="1" as="geometry">
            <mxPoint x="74" y="937.5" as="targetPoint" />
            <mxPoint x="74" y="857.5" as="sourcePoint" />
          </mxGeometry>
        </mxCell>
        <mxCell id="__xzhOT7xX7lZz7hjgIz-80" value="" style="rhombus;whiteSpace=wrap;html=1;" vertex="1" parent="1c1d494c118603dd-3">
          <mxGeometry x="72.5" y="987.5" width="35" height="35" as="geometry" />
        </mxCell>
        <mxCell id="__xzhOT7xX7lZz7hjgIz-81" value="" style="edgeStyle=orthogonalEdgeStyle;rounded=0;orthogonalLoop=1;jettySize=auto;html=1;" edge="1" parent="1c1d494c118603dd-3" source="__xzhOT7xX7lZz7hjgIz-70" target="__xzhOT7xX7lZz7hjgIz-80">
          <mxGeometry relative="1" as="geometry" />
        </mxCell>
        <mxCell id="__xzhOT7xX7lZz7hjgIz-87" value="" style="rhombus;whiteSpace=wrap;html=1;" vertex="1" parent="1c1d494c118603dd-3">
          <mxGeometry x="72.5" y="1057.5" width="34.5" height="30" as="geometry" />
        </mxCell>
        <mxCell id="__xzhOT7xX7lZz7hjgIz-86" style="edgeStyle=orthogonalEdgeStyle;rounded=0;orthogonalLoop=1;jettySize=auto;html=1;" edge="1" parent="1c1d494c118603dd-3" source="__xzhOT7xX7lZz7hjgIz-80" target="__xzhOT7xX7lZz7hjgIz-87">
          <mxGeometry relative="1" as="geometry">
            <mxPoint x="74.5" y="1097.4999999999998" as="targetPoint" />
          </mxGeometry>
        </mxCell>
        <mxCell id="__xzhOT7xX7lZz7hjgIz-93" value="" style="rhombus;whiteSpace=wrap;html=1;" vertex="1" parent="1c1d494c118603dd-3">
          <mxGeometry x="73.25" y="1128.75" width="34.25" height="30" as="geometry" />
        </mxCell>
        <mxCell id="__xzhOT7xX7lZz7hjgIz-92" style="edgeStyle=orthogonalEdgeStyle;rounded=0;orthogonalLoop=1;jettySize=auto;html=1;" edge="1" parent="1c1d494c118603dd-3" source="__xzhOT7xX7lZz7hjgIz-87" target="__xzhOT7xX7lZz7hjgIz-93">
          <mxGeometry relative="1" as="geometry">
            <mxPoint x="74.74999999999977" y="1147.4999999999998" as="targetPoint" />
          </mxGeometry>
        </mxCell>
        <mxCell id="__xzhOT7xX7lZz7hjgIz-240" value="logout" style="shape=rect;html=1;rounded=1;whiteSpace=wrap;align=center;" vertex="1" parent="1c1d494c118603dd-3">
          <mxGeometry x="34" y="1607.5" width="80" height="30" as="geometry" />
        </mxCell>
        <mxCell id="BQfJ22sMHKFKmYUab2p0-1" value="student" style="swimlane;html=1;startSize=20;" parent="1c1d494c118603dd-1" vertex="1">
          <mxGeometry x="420" y="20" width="180" height="2000" as="geometry" />
        </mxCell>
        <mxCell id="__xzhOT7xX7lZz7hjgIz-25" value="enter studentId&lt;br&gt;testId&amp;nbsp;" style="shape=rect;html=1;rounded=1;whiteSpace=wrap;align=center;" vertex="1" parent="BQfJ22sMHKFKmYUab2p0-1">
          <mxGeometry x="40.25" y="210" width="125" height="50" as="geometry" />
        </mxCell>
        <mxCell id="__xzhOT7xX7lZz7hjgIz-50" value="answer questions" style="shape=rect;html=1;rounded=1;whiteSpace=wrap;align=center;" vertex="1" parent="BQfJ22sMHKFKmYUab2p0-1">
          <mxGeometry x="52.25" y="535" width="101" height="45" as="geometry" />
        </mxCell>
        <mxCell id="__xzhOT7xX7lZz7hjgIz-52" value="" style="rhombus;whiteSpace=wrap;html=1;" vertex="1" parent="BQfJ22sMHKFKmYUab2p0-1">
          <mxGeometry x="87.75" y="405" width="30" height="30" as="geometry" />
        </mxCell>
        <mxCell id="__xzhOT7xX7lZz7hjgIz-51" style="edgeStyle=orthogonalEdgeStyle;rounded=0;orthogonalLoop=1;jettySize=auto;html=1;" edge="1" parent="BQfJ22sMHKFKmYUab2p0-1" source="__xzhOT7xX7lZz7hjgIz-50" target="__xzhOT7xX7lZz7hjgIz-52">
          <mxGeometry relative="1" as="geometry">
            <mxPoint x="107.75" y="435" as="targetPoint" />
          </mxGeometry>
        </mxCell>
        <mxCell id="__xzhOT7xX7lZz7hjgIz-249" value="close test" style="shape=rect;html=1;rounded=1;whiteSpace=wrap;align=center;" vertex="1" parent="BQfJ22sMHKFKmYUab2p0-1">
          <mxGeometry x="39" y="645" width="127.5" height="35" as="geometry" />
        </mxCell>
        <mxCell id="__xzhOT7xX7lZz7hjgIz-3" value="server" style="swimlane;html=1;startSize=20;" vertex="1" parent="1c1d494c118603dd-1">
          <mxGeometry x="600" y="20" width="190" height="2000" as="geometry" />
        </mxCell>
        <mxCell id="__xzhOT7xX7lZz7hjgIz-28" value="authorize&lt;br&gt;username&lt;br&gt;password" style="shape=rect;html=1;rounded=1;whiteSpace=wrap;align=center;" vertex="1" parent="__xzhOT7xX7lZz7hjgIz-3">
          <mxGeometry x="79" y="77.5" width="100" height="50" as="geometry" />
        </mxCell>
        <mxCell id="__xzhOT7xX7lZz7hjgIz-30" value="" style="rhombus;whiteSpace=wrap;html=1;" vertex="1" parent="__xzhOT7xX7lZz7hjgIz-3">
          <mxGeometry x="114" y="165" width="30" height="30" as="geometry" />
        </mxCell>
        <mxCell id="__xzhOT7xX7lZz7hjgIz-29" style="edgeStyle=orthogonalEdgeStyle;rounded=0;orthogonalLoop=1;jettySize=auto;html=1;" edge="1" parent="__xzhOT7xX7lZz7hjgIz-3" source="__xzhOT7xX7lZz7hjgIz-28" target="__xzhOT7xX7lZz7hjgIz-30">
          <mxGeometry relative="1" as="geometry">
            <mxPoint x="89" y="170" as="targetPoint" />
          </mxGeometry>
        </mxCell>
        <mxCell id="__xzhOT7xX7lZz7hjgIz-41" value="check studentId&lt;br&gt;testId" style="shape=rect;html=1;rounded=1;whiteSpace=wrap;align=center;" vertex="1" parent="__xzhOT7xX7lZz7hjgIz-3">
          <mxGeometry x="19" y="205" width="100" height="60" as="geometry" />
        </mxCell>
        <mxCell id="__xzhOT7xX7lZz7hjgIz-43" value="" style="rhombus;whiteSpace=wrap;html=1;" vertex="1" parent="__xzhOT7xX7lZz7hjgIz-3">
          <mxGeometry x="54" y="295" width="30" height="30" as="geometry" />
        </mxCell>
        <mxCell id="__xzhOT7xX7lZz7hjgIz-42" style="edgeStyle=orthogonalEdgeStyle;rounded=0;orthogonalLoop=1;jettySize=auto;html=1;" edge="1" parent="__xzhOT7xX7lZz7hjgIz-3" source="__xzhOT7xX7lZz7hjgIz-41" target="__xzhOT7xX7lZz7hjgIz-43">
          <mxGeometry relative="1" as="geometry">
            <mxPoint x="59" y="315" as="targetPoint" />
          </mxGeometry>
        </mxCell>
        <mxCell id="__xzhOT7xX7lZz7hjgIz-58" value="check answers" style="shape=rect;html=1;rounded=1;whiteSpace=wrap;align=center;" vertex="1" parent="__xzhOT7xX7lZz7hjgIz-3">
          <mxGeometry x="9" y="396.25" width="110" height="47.5" as="geometry" />
        </mxCell>
        <mxCell id="__xzhOT7xX7lZz7hjgIz-61" value="save results" style="shape=rect;html=1;rounded=1;whiteSpace=wrap;align=center;" vertex="1" parent="__xzhOT7xX7lZz7hjgIz-3">
          <mxGeometry x="9" y="535" width="110" height="40" as="geometry" />
        </mxCell>
        <mxCell id="__xzhOT7xX7lZz7hjgIz-60" style="edgeStyle=orthogonalEdgeStyle;rounded=0;orthogonalLoop=1;jettySize=auto;html=1;" edge="1" parent="__xzhOT7xX7lZz7hjgIz-3" source="__xzhOT7xX7lZz7hjgIz-58" target="__xzhOT7xX7lZz7hjgIz-61">
          <mxGeometry relative="1" as="geometry">
            <mxPoint x="64" y="535" as="targetPoint" />
          </mxGeometry>
        </mxCell>
        <mxCell id="__xzhOT7xX7lZz7hjgIz-113" value="update data" style="shape=rect;html=1;rounded=1;whiteSpace=wrap;align=center;" vertex="1" parent="__xzhOT7xX7lZz7hjgIz-3">
          <mxGeometry x="19" y="1225" width="100" height="50" as="geometry" />
        </mxCell>
        <mxCell id="__xzhOT7xX7lZz7hjgIz-115" value="save &lt;br&gt;new&amp;nbsp;test/class" style="shape=rect;html=1;rounded=1;whiteSpace=wrap;align=center;" vertex="1" parent="__xzhOT7xX7lZz7hjgIz-3">
          <mxGeometry x="19" y="1335" width="100" height="40" as="geometry" />
        </mxCell>
        <mxCell id="__xzhOT7xX7lZz7hjgIz-242" value="logout" style="shape=rect;html=1;rounded=1;whiteSpace=wrap;align=center;" vertex="1" parent="__xzhOT7xX7lZz7hjgIz-3">
          <mxGeometry x="24" y="1602.5" width="90" height="35" as="geometry" />
        </mxCell>
        <mxCell id="__xzhOT7xX7lZz7hjgIz-20" style="edgeStyle=orthogonalEdgeStyle;rounded=0;orthogonalLoop=1;jettySize=auto;html=1;exitX=0.5;exitY=0;exitDx=0;exitDy=0;entryX=0;entryY=0.5;entryDx=0;entryDy=0;" edge="1" parent="1c1d494c118603dd-1" source="__xzhOT7xX7lZz7hjgIz-15" target="__xzhOT7xX7lZz7hjgIz-21">
          <mxGeometry relative="1" as="geometry">
            <mxPoint x="330" y="120" as="targetPoint" />
          </mxGeometry>
        </mxCell>
        <mxCell id="__xzhOT7xX7lZz7hjgIz-22" value="teacher" style="edgeLabel;html=1;align=center;verticalAlign=middle;resizable=0;points=[];" vertex="1" connectable="0" parent="__xzhOT7xX7lZz7hjgIz-20">
          <mxGeometry x="-0.2164" y="4" relative="1" as="geometry">
            <mxPoint x="15.71" y="4" as="offset" />
          </mxGeometry>
        </mxCell>
        <mxCell id="__xzhOT7xX7lZz7hjgIz-24" style="edgeStyle=orthogonalEdgeStyle;rounded=0;orthogonalLoop=1;jettySize=auto;html=1;entryX=0;entryY=0.5;entryDx=0;entryDy=0;" edge="1" parent="1c1d494c118603dd-1" source="__xzhOT7xX7lZz7hjgIz-15" target="__xzhOT7xX7lZz7hjgIz-25">
          <mxGeometry relative="1" as="geometry">
            <mxPoint x="563" y="255" as="targetPoint" />
            <Array as="points">
              <mxPoint x="150" y="255" />
            </Array>
          </mxGeometry>
        </mxCell>
        <mxCell id="__xzhOT7xX7lZz7hjgIz-26" value="student" style="edgeLabel;html=1;align=center;verticalAlign=middle;resizable=0;points=[];" vertex="1" connectable="0" parent="__xzhOT7xX7lZz7hjgIz-24">
          <mxGeometry x="-0.5649" y="-2" relative="1" as="geometry">
            <mxPoint x="13.57" y="-2" as="offset" />
          </mxGeometry>
        </mxCell>
        <mxCell id="__xzhOT7xX7lZz7hjgIz-27" style="edgeStyle=orthogonalEdgeStyle;rounded=0;orthogonalLoop=1;jettySize=auto;html=1;" edge="1" parent="1c1d494c118603dd-1" source="__xzhOT7xX7lZz7hjgIz-21" target="__xzhOT7xX7lZz7hjgIz-28">
          <mxGeometry relative="1" as="geometry">
            <mxPoint x="850" y="120" as="targetPoint" />
          </mxGeometry>
        </mxCell>
        <mxCell id="__xzhOT7xX7lZz7hjgIz-31" style="edgeStyle=orthogonalEdgeStyle;rounded=0;orthogonalLoop=1;jettySize=auto;html=1;entryX=0.5;entryY=1;entryDx=0;entryDy=0;" edge="1" parent="1c1d494c118603dd-1" source="__xzhOT7xX7lZz7hjgIz-30" target="__xzhOT7xX7lZz7hjgIz-21">
          <mxGeometry relative="1" as="geometry" />
        </mxCell>
        <mxCell id="__xzhOT7xX7lZz7hjgIz-32" value="invalid" style="edgeLabel;html=1;align=center;verticalAlign=middle;resizable=0;points=[];" vertex="1" connectable="0" parent="__xzhOT7xX7lZz7hjgIz-31">
          <mxGeometry x="-0.2025" y="2" relative="1" as="geometry">
            <mxPoint x="135" y="-2" as="offset" />
          </mxGeometry>
        </mxCell>
        <mxCell id="__xzhOT7xX7lZz7hjgIz-33" style="edgeStyle=orthogonalEdgeStyle;rounded=0;orthogonalLoop=1;jettySize=auto;html=1;" edge="1" parent="1c1d494c118603dd-1" source="__xzhOT7xX7lZz7hjgIz-30" target="__xzhOT7xX7lZz7hjgIz-34">
          <mxGeometry relative="1" as="geometry">
            <mxPoint x="120" y="320" as="targetPoint" />
            <Array as="points">
              <mxPoint x="729" y="775" />
            </Array>
          </mxGeometry>
        </mxCell>
        <mxCell id="__xzhOT7xX7lZz7hjgIz-35" value="valid" style="edgeLabel;html=1;align=center;verticalAlign=middle;resizable=0;points=[];" vertex="1" connectable="0" parent="__xzhOT7xX7lZz7hjgIz-33">
          <mxGeometry x="-0.7862" relative="1" as="geometry">
            <mxPoint y="-105" as="offset" />
          </mxGeometry>
        </mxCell>
        <mxCell id="__xzhOT7xX7lZz7hjgIz-40" style="edgeStyle=orthogonalEdgeStyle;rounded=0;orthogonalLoop=1;jettySize=auto;html=1;" edge="1" parent="1c1d494c118603dd-1" source="__xzhOT7xX7lZz7hjgIz-25" target="__xzhOT7xX7lZz7hjgIz-41">
          <mxGeometry relative="1" as="geometry">
            <mxPoint x="810" y="255" as="targetPoint" />
          </mxGeometry>
        </mxCell>
        <mxCell id="__xzhOT7xX7lZz7hjgIz-44" style="edgeStyle=orthogonalEdgeStyle;rounded=0;orthogonalLoop=1;jettySize=auto;html=1;entryX=0.5;entryY=1;entryDx=0;entryDy=0;" edge="1" parent="1c1d494c118603dd-1" source="__xzhOT7xX7lZz7hjgIz-43" target="__xzhOT7xX7lZz7hjgIz-25">
          <mxGeometry relative="1" as="geometry" />
        </mxCell>
        <mxCell id="__xzhOT7xX7lZz7hjgIz-45" value="error" style="edgeLabel;html=1;align=center;verticalAlign=middle;resizable=0;points=[];" vertex="1" connectable="0" parent="__xzhOT7xX7lZz7hjgIz-44">
          <mxGeometry x="-0.0249" y="-1" relative="1" as="geometry">
            <mxPoint as="offset" />
          </mxGeometry>
        </mxCell>
        <mxCell id="__xzhOT7xX7lZz7hjgIz-46" style="edgeStyle=orthogonalEdgeStyle;rounded=0;orthogonalLoop=1;jettySize=auto;html=1;" edge="1" parent="1c1d494c118603dd-1" source="__xzhOT7xX7lZz7hjgIz-43" target="__xzhOT7xX7lZz7hjgIz-47">
          <mxGeometry relative="1" as="geometry">
            <mxPoint x="130" y="365" as="targetPoint" />
            <Array as="points">
              <mxPoint x="669" y="375" />
              <mxPoint x="115" y="375" />
            </Array>
          </mxGeometry>
        </mxCell>
        <mxCell id="__xzhOT7xX7lZz7hjgIz-48" value="success" style="edgeLabel;html=1;align=center;verticalAlign=middle;resizable=0;points=[];" vertex="1" connectable="0" parent="__xzhOT7xX7lZz7hjgIz-46">
          <mxGeometry x="-0.1379" y="3" relative="1" as="geometry">
            <mxPoint x="139.41" y="-3" as="offset" />
          </mxGeometry>
        </mxCell>
        <mxCell id="__xzhOT7xX7lZz7hjgIz-49" style="edgeStyle=orthogonalEdgeStyle;rounded=0;orthogonalLoop=1;jettySize=auto;html=1;" edge="1" parent="1c1d494c118603dd-1" source="__xzhOT7xX7lZz7hjgIz-47" target="__xzhOT7xX7lZz7hjgIz-50">
          <mxGeometry relative="1" as="geometry">
            <mxPoint x="610" y="405" as="targetPoint" />
            <Array as="points">
              <mxPoint x="115" y="578" />
            </Array>
          </mxGeometry>
        </mxCell>
        <mxCell id="__xzhOT7xX7lZz7hjgIz-53" style="edgeStyle=orthogonalEdgeStyle;rounded=0;orthogonalLoop=1;jettySize=auto;html=1;entryX=1;entryY=0.5;entryDx=0;entryDy=0;" edge="1" parent="1c1d494c118603dd-1" source="__xzhOT7xX7lZz7hjgIz-52" target="__xzhOT7xX7lZz7hjgIz-47">
          <mxGeometry relative="1" as="geometry" />
        </mxCell>
        <mxCell id="__xzhOT7xX7lZz7hjgIz-56" value="next&amp;nbsp; question" style="edgeLabel;html=1;align=center;verticalAlign=middle;resizable=0;points=[];" vertex="1" connectable="0" parent="__xzhOT7xX7lZz7hjgIz-53">
          <mxGeometry x="-0.2303" y="3" relative="1" as="geometry">
            <mxPoint x="-72.14" y="-0.5" as="offset" />
          </mxGeometry>
        </mxCell>
        <mxCell id="__xzhOT7xX7lZz7hjgIz-57" style="edgeStyle=orthogonalEdgeStyle;rounded=0;orthogonalLoop=1;jettySize=auto;html=1;" edge="1" parent="1c1d494c118603dd-1" source="__xzhOT7xX7lZz7hjgIz-52" target="__xzhOT7xX7lZz7hjgIz-58">
          <mxGeometry relative="1" as="geometry">
            <mxPoint x="829" y="440" as="targetPoint" />
          </mxGeometry>
        </mxCell>
        <mxCell id="__xzhOT7xX7lZz7hjgIz-59" value="ended" style="edgeLabel;html=1;align=center;verticalAlign=middle;resizable=0;points=[];" vertex="1" connectable="0" parent="__xzhOT7xX7lZz7hjgIz-57">
          <mxGeometry x="-0.1048" relative="1" as="geometry">
            <mxPoint as="offset" />
          </mxGeometry>
        </mxCell>
        <mxCell id="__xzhOT7xX7lZz7hjgIz-62" style="edgeStyle=orthogonalEdgeStyle;rounded=0;orthogonalLoop=1;jettySize=auto;html=1;" edge="1" parent="1c1d494c118603dd-1" source="__xzhOT7xX7lZz7hjgIz-61" target="__xzhOT7xX7lZz7hjgIz-63">
          <mxGeometry relative="1" as="geometry">
            <mxPoint x="109" y="675" as="targetPoint" />
            <Array as="points">
              <mxPoint x="664" y="643" />
            </Array>
          </mxGeometry>
        </mxCell>
        <mxCell id="__xzhOT7xX7lZz7hjgIz-72" style="edgeStyle=orthogonalEdgeStyle;rounded=0;orthogonalLoop=1;jettySize=auto;html=1;" edge="1" parent="1c1d494c118603dd-1" source="__xzhOT7xX7lZz7hjgIz-70" target="__xzhOT7xX7lZz7hjgIz-78">
          <mxGeometry relative="1" as="geometry">
            <mxPoint x="299" y="1065" as="targetPoint" />
            <Array as="points">
              <mxPoint x="239" y="933" />
              <mxPoint x="239" y="933" />
            </Array>
          </mxGeometry>
        </mxCell>
        <mxCell id="__xzhOT7xX7lZz7hjgIz-76" value="create &lt;br&gt;test/class" style="edgeLabel;html=1;align=center;verticalAlign=middle;resizable=0;points=[];" vertex="1" connectable="0" parent="__xzhOT7xX7lZz7hjgIz-72">
          <mxGeometry x="0.2129" y="4" relative="1" as="geometry">
            <mxPoint x="25.89999999999999" y="-4.1000000000000005" as="offset" />
          </mxGeometry>
        </mxCell>
        <mxCell id="__xzhOT7xX7lZz7hjgIz-84" style="edgeStyle=orthogonalEdgeStyle;rounded=0;orthogonalLoop=1;jettySize=auto;html=1;entryX=1;entryY=0.5;entryDx=0;entryDy=0;" edge="1" parent="1c1d494c118603dd-1" source="__xzhOT7xX7lZz7hjgIz-80" target="__xzhOT7xX7lZz7hjgIz-79">
          <mxGeometry relative="1" as="geometry" />
        </mxCell>
        <mxCell id="__xzhOT7xX7lZz7hjgIz-85" value="edit &lt;br&gt;test/class" style="edgeLabel;html=1;align=center;verticalAlign=middle;resizable=0;points=[];" vertex="1" connectable="0" parent="__xzhOT7xX7lZz7hjgIz-84">
          <mxGeometry x="0.2537" y="-1" relative="1" as="geometry">
            <mxPoint x="28.000000000000007" y="1" as="offset" />
          </mxGeometry>
        </mxCell>
        <mxCell id="__xzhOT7xX7lZz7hjgIz-88" style="edgeStyle=orthogonalEdgeStyle;rounded=0;orthogonalLoop=1;jettySize=auto;html=1;" edge="1" parent="1c1d494c118603dd-1" source="__xzhOT7xX7lZz7hjgIz-87" target="__xzhOT7xX7lZz7hjgIz-89">
          <mxGeometry relative="1" as="geometry">
            <mxPoint x="159" y="1089.9999999999998" as="targetPoint" />
          </mxGeometry>
        </mxCell>
        <mxCell id="__xzhOT7xX7lZz7hjgIz-90" value="delete &lt;br&gt;test/class" style="edgeLabel;html=1;align=center;verticalAlign=middle;resizable=0;points=[];" vertex="1" connectable="0" parent="__xzhOT7xX7lZz7hjgIz-88">
          <mxGeometry x="-0.4092" y="2" relative="1" as="geometry">
            <mxPoint x="-4.5" y="-4.5" as="offset" />
          </mxGeometry>
        </mxCell>
        <mxCell id="__xzhOT7xX7lZz7hjgIz-94" style="edgeStyle=orthogonalEdgeStyle;rounded=0;orthogonalLoop=1;jettySize=auto;html=1;" edge="1" parent="1c1d494c118603dd-1" source="__xzhOT7xX7lZz7hjgIz-93" target="__xzhOT7xX7lZz7hjgIz-95">
          <mxGeometry relative="1" as="geometry">
            <mxPoint x="159" y="1159.9999999999998" as="targetPoint" />
          </mxGeometry>
        </mxCell>
        <mxCell id="__xzhOT7xX7lZz7hjgIz-96" value="update &lt;br&gt;account info" style="edgeLabel;html=1;align=center;verticalAlign=middle;resizable=0;points=[];" vertex="1" connectable="0" parent="__xzhOT7xX7lZz7hjgIz-94">
          <mxGeometry x="-0.3069" y="3" relative="1" as="geometry">
            <mxPoint x="-0.9399999999999995" y="-3.06" as="offset" />
          </mxGeometry>
        </mxCell>
        <mxCell id="__xzhOT7xX7lZz7hjgIz-112" style="edgeStyle=orthogonalEdgeStyle;rounded=0;orthogonalLoop=1;jettySize=auto;html=1;exitX=0;exitY=0.5;exitDx=0;exitDy=0;" edge="1" parent="1c1d494c118603dd-1" source="__xzhOT7xX7lZz7hjgIz-99" target="__xzhOT7xX7lZz7hjgIz-113">
          <mxGeometry relative="1" as="geometry">
            <mxPoint x="859" y="1265" as="targetPoint" />
            <Array as="points">
              <mxPoint x="79" y="1090" />
              <mxPoint x="79" y="1265" />
            </Array>
          </mxGeometry>
        </mxCell>
        <mxCell id="__xzhOT7xX7lZz7hjgIz-114" style="edgeStyle=orthogonalEdgeStyle;rounded=0;orthogonalLoop=1;jettySize=auto;html=1;" edge="1" parent="1c1d494c118603dd-1" source="__xzhOT7xX7lZz7hjgIz-78" target="__xzhOT7xX7lZz7hjgIz-115">
          <mxGeometry relative="1" as="geometry">
            <mxPoint x="859" y="1375" as="targetPoint" />
            <Array as="points">
              <mxPoint x="59" y="935" />
              <mxPoint x="59" y="1375" />
            </Array>
          </mxGeometry>
        </mxCell>
        <mxCell id="__xzhOT7xX7lZz7hjgIz-126" style="edgeStyle=orthogonalEdgeStyle;rounded=0;orthogonalLoop=1;jettySize=auto;html=1;entryX=1;entryY=0.25;entryDx=0;entryDy=0;" edge="1" parent="1c1d494c118603dd-1" source="__xzhOT7xX7lZz7hjgIz-115" target="__xzhOT7xX7lZz7hjgIz-120">
          <mxGeometry relative="1" as="geometry">
            <Array as="points">
              <mxPoint x="739" y="1375" />
              <mxPoint x="739" y="1506" />
            </Array>
          </mxGeometry>
        </mxCell>
        <mxCell id="__xzhOT7xX7lZz7hjgIz-127" style="edgeStyle=orthogonalEdgeStyle;rounded=0;orthogonalLoop=1;jettySize=auto;html=1;entryX=1;entryY=0.75;entryDx=0;entryDy=0;" edge="1" parent="1c1d494c118603dd-1" source="__xzhOT7xX7lZz7hjgIz-113" target="__xzhOT7xX7lZz7hjgIz-120">
          <mxGeometry relative="1" as="geometry">
            <Array as="points">
              <mxPoint x="769" y="1270" />
              <mxPoint x="769" y="1549" />
            </Array>
          </mxGeometry>
        </mxCell>
        <mxCell id="__xzhOT7xX7lZz7hjgIz-215" style="edgeStyle=orthogonalEdgeStyle;rounded=0;orthogonalLoop=1;jettySize=auto;html=1;entryX=0;entryY=0.5;entryDx=0;entryDy=0;" edge="1" parent="1c1d494c118603dd-1" source="__xzhOT7xX7lZz7hjgIz-212" target="__xzhOT7xX7lZz7hjgIz-67">
          <mxGeometry relative="1" as="geometry" />
        </mxCell>
        <mxCell id="__xzhOT7xX7lZz7hjgIz-216" value="else" style="edgeLabel;html=1;align=center;verticalAlign=middle;resizable=0;points=[];" vertex="1" connectable="0" parent="__xzhOT7xX7lZz7hjgIz-215">
          <mxGeometry x="0.2108" relative="1" as="geometry">
            <mxPoint x="-62" as="offset" />
          </mxGeometry>
        </mxCell>
        <mxCell id="__xzhOT7xX7lZz7hjgIz-239" style="edgeStyle=orthogonalEdgeStyle;rounded=0;orthogonalLoop=1;jettySize=auto;html=1;entryX=0.5;entryY=1;entryDx=0;entryDy=0;" edge="1" parent="1c1d494c118603dd-1" source="__xzhOT7xX7lZz7hjgIz-212" target="__xzhOT7xX7lZz7hjgIz-240">
          <mxGeometry relative="1" as="geometry">
            <mxPoint x="359" y="1645" as="targetPoint" />
            <Array as="points">
              <mxPoint x="49" y="850" />
              <mxPoint x="49" y="1705" />
              <mxPoint x="384" y="1705" />
            </Array>
          </mxGeometry>
        </mxCell>
        <mxCell id="__xzhOT7xX7lZz7hjgIz-245" value="logout" style="edgeLabel;html=1;align=center;verticalAlign=middle;resizable=0;points=[];" vertex="1" connectable="0" parent="__xzhOT7xX7lZz7hjgIz-239">
          <mxGeometry x="-0.9657" relative="1" as="geometry">
            <mxPoint as="offset" />
          </mxGeometry>
        </mxCell>
        <mxCell id="__xzhOT7xX7lZz7hjgIz-241" style="edgeStyle=orthogonalEdgeStyle;rounded=0;orthogonalLoop=1;jettySize=auto;html=1;" edge="1" parent="1c1d494c118603dd-1" source="__xzhOT7xX7lZz7hjgIz-240" target="__xzhOT7xX7lZz7hjgIz-242">
          <mxGeometry relative="1" as="geometry">
            <mxPoint x="839" y="1640" as="targetPoint" />
          </mxGeometry>
        </mxCell>
        <mxCell id="__xzhOT7xX7lZz7hjgIz-243" style="edgeStyle=orthogonalEdgeStyle;rounded=0;orthogonalLoop=1;jettySize=auto;html=1;entryX=0;entryY=0.5;entryDx=0;entryDy=0;" edge="1" parent="1c1d494c118603dd-1" source="__xzhOT7xX7lZz7hjgIz-130" target="__xzhOT7xX7lZz7hjgIz-240">
          <mxGeometry relative="1" as="geometry">
            <Array as="points">
              <mxPoint x="134" y="1640" />
            </Array>
          </mxGeometry>
        </mxCell>
        <mxCell id="__xzhOT7xX7lZz7hjgIz-246" style="edgeStyle=orthogonalEdgeStyle;rounded=0;orthogonalLoop=1;jettySize=auto;html=1;" edge="1" parent="1c1d494c118603dd-1" source="__xzhOT7xX7lZz7hjgIz-242" target="__xzhOT7xX7lZz7hjgIz-247">
          <mxGeometry relative="1" as="geometry">
            <mxPoint x="129" y="1815" as="targetPoint" />
            <Array as="points">
              <mxPoint x="669" y="1810" />
            </Array>
          </mxGeometry>
        </mxCell>
        <mxCell id="__xzhOT7xX7lZz7hjgIz-248" style="edgeStyle=orthogonalEdgeStyle;rounded=0;orthogonalLoop=1;jettySize=auto;html=1;" edge="1" parent="1c1d494c118603dd-1" source="__xzhOT7xX7lZz7hjgIz-63" target="__xzhOT7xX7lZz7hjgIz-249">
          <mxGeometry relative="1" as="geometry">
            <mxPoint x="609" y="695" as="targetPoint" />
            <Array as="points">
              <mxPoint x="115" y="685" />
            </Array>
          </mxGeometry>
        </mxCell>
        <mxCell id="__xzhOT7xX7lZz7hjgIz-250" style="edgeStyle=orthogonalEdgeStyle;rounded=0;orthogonalLoop=1;jettySize=auto;html=1;entryX=0;entryY=0.5;entryDx=0;entryDy=0;" edge="1" parent="1c1d494c118603dd-1" source="__xzhOT7xX7lZz7hjgIz-249" target="__xzhOT7xX7lZz7hjgIz-247">
          <mxGeometry relative="1" as="geometry">
            <mxPoint x="29" y="1245" as="targetPoint" />
            <Array as="points">
              <mxPoint x="523" y="725" />
              <mxPoint x="29" y="725" />
              <mxPoint x="29" y="1810" />
            </Array>
          </mxGeometry>
        </mxCell>
      </root>
    </mxGraphModel>
  </diagram>
</mxfile>
